<svg width="133" height="33" viewBox="0 0 133 33" fill="none" xmlns="http://www.w3.org/2000/svg">
<path d="M31.15 5.34C32.39 5.34 33.43 5.51 34.27 5.85C35.13 6.19 35.97 6.67 36.79 7.29C37.03 7.47 37.23 7.56 37.39 7.56C37.59 7.56 37.75 7.42 37.87 7.14C37.99 6.84 38.08 6.38 38.14 5.76H38.83C38.75 7.12 38.71 9.54 38.71 13.02H38.02C37.86 11.66 37.62 10.56 37.3 9.72C37 8.88 36.49 8.17 35.77 7.59C35.29 7.13 34.7 6.77 34 6.51C33.3 6.25 32.58 6.12 31.84 6.12C30.44 6.12 29.27 6.6 28.33 7.56C27.41 8.5 26.73 9.75 26.29 11.31C25.85 12.87 25.63 14.58 25.63 16.44C25.63 23.36 27.55 26.82 31.39 26.82C32.27 26.82 32.98 26.62 33.52 26.22C33.78 26.04 33.96 25.83 34.06 25.59C34.18 25.35 34.24 25.04 34.24 24.66V21.72C34.24 20.78 34.16 20.1 34 19.68C33.84 19.24 33.55 18.94 33.13 18.78C32.73 18.62 32.09 18.52 31.21 18.48V17.88C32.45 17.94 34.16 17.97 36.34 17.97C38.12 17.97 39.46 17.94 40.36 17.88V18.48C39.96 18.52 39.67 18.6 39.49 18.72C39.31 18.84 39.18 19.07 39.1 19.41C39.04 19.75 39.01 20.3 39.01 21.06V27H38.41C38.39 26.58 38.3 26.19 38.14 25.83C38 25.47 37.8 25.29 37.54 25.29C37.2 25.29 36.66 25.5 35.92 25.92C34.18 26.92 32.54 27.42 31 27.42C27.54 27.42 24.89 26.48 23.05 24.6C21.21 22.7 20.29 20.04 20.29 16.62C20.29 14.38 20.75 12.41 21.67 10.71C22.61 9.01 23.9 7.69 25.54 6.75C27.18 5.81 29.05 5.34 31.15 5.34ZM45.6805 3.75C46.5205 3.75 47.1805 3.96 47.6605 4.38C48.1605 4.78 48.4105 5.34 48.4105 6.06C48.4105 6.78 48.1605 7.35 47.6605 7.77C47.1805 8.17 46.5205 8.37 45.6805 8.37C44.8405 8.37 44.1705 8.17 43.6705 7.77C43.1905 7.35 42.9505 6.78 42.9505 6.06C42.9505 5.34 43.1905 4.78 43.6705 4.38C44.1705 3.96 44.8405 3.75 45.6805 3.75ZM48.0205 24.21C48.0205 25.03 48.1605 25.6 48.4405 25.92C48.7405 26.22 49.2405 26.37 49.9405 26.37V27C47.9405 26.92 46.6105 26.88 45.9505 26.88C45.3305 26.88 43.9405 26.92 41.7805 27V26.37C42.5005 26.37 43.0005 26.22 43.2805 25.92C43.5605 25.6 43.7005 25.03 43.7005 24.21V14.76C43.7005 13.84 43.5605 13.17 43.2805 12.75C43.0005 12.33 42.5005 12.12 41.7805 12.12V11.49C42.4205 11.55 43.0405 11.58 43.6405 11.58C45.4205 11.58 46.8805 11.44 48.0205 11.16V24.21ZM63.3063 11.58C64.3263 11.58 65.0963 11.55 65.6163 11.49V12.09C65.1963 12.21 64.8163 12.47 64.4763 12.87C64.1563 13.25 63.8463 13.85 63.5463 14.67L59.1663 27.06C58.9463 27.04 58.6163 27.03 58.1763 27.03C57.7563 27.03 57.4363 27.04 57.2163 27.06L51.8763 13.8C51.5963 13.12 51.3063 12.67 51.0063 12.45C50.7263 12.23 50.4362 12.12 50.1362 12.12V11.49C51.5363 11.59 52.9563 11.64 54.3963 11.64C55.6563 11.64 56.9563 11.59 58.2963 11.49V12.12C57.6163 12.12 57.1263 12.17 56.8263 12.27C56.5463 12.35 56.4063 12.59 56.4063 12.99C56.4063 13.15 56.4563 13.4 56.5563 13.74L59.9763 22.83L62.1363 16.89C62.4563 15.95 62.6163 15.14 62.6163 14.46C62.6163 13 61.8863 12.21 60.4263 12.09V11.49C61.3463 11.55 62.3063 11.58 63.3063 11.58ZM74.7412 24.96C76.3812 24.96 77.7012 24.16 78.7012 22.56L79.2412 22.74C78.8412 24.04 78.1212 25.15 77.0812 26.07C76.0612 26.97 74.7812 27.42 73.2412 27.42C71.1212 27.42 69.4312 26.75 68.1712 25.41C66.9312 24.05 66.3112 22.05 66.3112 19.41C66.3112 16.71 66.9812 14.65 68.3212 13.23C69.6612 11.79 71.4412 11.07 73.6612 11.07C77.4212 11.07 79.3012 13.29 79.3012 17.73H70.8712C70.8512 18.03 70.8412 18.5 70.8412 19.14C70.8412 20.46 71.0212 21.56 71.3812 22.44C71.7612 23.32 72.2412 23.96 72.8212 24.36C73.4212 24.76 74.0612 24.96 74.7412 24.96ZM73.4812 11.7C72.7612 11.7 72.1612 12.15 71.6812 13.05C71.2212 13.93 70.9312 15.3 70.8112 17.16H75.5212C75.5612 15.58 75.4012 14.28 75.0412 13.26C74.7012 12.22 74.1812 11.7 73.4812 11.7ZM90.4661 6.36C89.7461 6.4 89.2161 6.48 88.8761 6.6C88.5561 6.72 88.3361 6.95 88.2161 7.29C88.0961 7.63 88.0361 8.18 88.0361 8.94V24.18C88.0361 24.82 88.0861 25.29 88.1861 25.59C88.2861 25.87 88.4561 26.06 88.6961 26.16C88.9561 26.26 89.3661 26.31 89.9261 26.31H91.3961C92.7561 26.31 93.9261 25.7 94.9061 24.48C95.9061 23.26 96.5561 21.64 96.8561 19.62H97.5461C97.4861 20.3 97.4561 21.18 97.4561 22.26C97.4561 24.18 97.5261 25.76 97.6661 27C96.3061 26.94 94.0161 26.91 90.7961 26.91C86.4361 26.91 83.1761 26.94 81.0161 27V26.4C81.6761 26.36 82.1561 26.28 82.4561 26.16C82.7761 26.04 82.9861 25.81 83.0861 25.47C83.2061 25.13 83.2661 24.58 83.2661 23.82V8.94C83.2661 8.18 83.2061 7.63 83.0861 7.29C82.9861 6.95 82.7761 6.72 82.4561 6.6C82.1561 6.48 81.6761 6.4 81.0161 6.36V5.76C82.0361 5.82 83.6161 5.85 85.7561 5.85C87.7961 5.85 89.3661 5.82 90.4661 5.76V6.36ZM102.956 3.75C103.796 3.75 104.456 3.96 104.936 4.38C105.436 4.78 105.686 5.34 105.686 6.06C105.686 6.78 105.436 7.35 104.936 7.77C104.456 8.17 103.796 8.37 102.956 8.37C102.116 8.37 101.446 8.17 100.946 7.77C100.466 7.35 100.226 6.78 100.226 6.06C100.226 5.34 100.466 4.78 100.946 4.38C101.446 3.96 102.116 3.75 102.956 3.75ZM105.296 24.21C105.296 25.03 105.436 25.6 105.716 25.92C106.016 26.22 106.516 26.37 107.216 26.37V27C105.216 26.92 103.886 26.88 103.226 26.88C102.606 26.88 101.216 26.92 99.0559 27V26.37C99.7759 26.37 100.276 26.22 100.556 25.92C100.836 25.6 100.976 25.03 100.976 24.21V14.76C100.976 13.84 100.836 13.17 100.556 12.75C100.276 12.33 99.7759 12.12 99.0559 12.12V11.49C99.6959 11.55 100.316 11.58 100.916 11.58C102.696 11.58 104.156 11.44 105.296 11.16V24.21ZM116.439 3.54C117.679 3.54 118.749 3.87 119.649 4.53C119.949 4.77 120.189 5.09 120.369 5.49C120.569 5.87 120.669 6.3 120.669 6.78C120.669 7.34 120.469 7.83 120.069 8.25C119.669 8.65 119.159 8.85 118.539 8.85C117.859 8.85 117.309 8.66 116.889 8.28C116.469 7.9 116.259 7.38 116.259 6.72C116.259 6.2 116.409 5.74 116.709 5.34C117.009 4.94 117.449 4.66 118.029 4.5C117.969 4.38 117.839 4.28 117.639 4.2C117.459 4.12 117.229 4.08 116.949 4.08C116.189 4.08 115.649 4.34 115.329 4.86C115.109 5.16 114.959 5.6 114.879 6.18C114.799 6.76 114.759 7.63 114.759 8.79V11.52H117.969V12.12H114.759V23.91C114.759 24.83 114.989 25.47 115.449 25.83C115.929 26.19 116.639 26.37 117.579 26.37V27L116.739 26.97C114.519 26.91 113.079 26.88 112.419 26.88C111.819 26.88 110.519 26.92 108.519 27V26.37C109.239 26.37 109.739 26.22 110.019 25.92C110.299 25.6 110.439 25.03 110.439 24.21V12.12H108.399V11.52H110.439C110.439 9.78 110.579 8.44 110.859 7.5C111.139 6.54 111.629 5.72 112.329 5.04C112.769 4.6 113.359 4.24 114.099 3.96C114.839 3.68 115.619 3.54 116.439 3.54ZM127.358 24.96C128.998 24.96 130.318 24.16 131.318 22.56L131.858 22.74C131.458 24.04 130.738 25.15 129.698 26.07C128.678 26.97 127.398 27.42 125.858 27.42C123.738 27.42 122.048 26.75 120.788 25.41C119.548 24.05 118.928 22.05 118.928 19.41C118.928 16.71 119.598 14.65 120.938 13.23C122.278 11.79 124.058 11.07 126.278 11.07C130.038 11.07 131.918 13.29 131.918 17.73H123.488C123.468 18.03 123.458 18.5 123.458 19.14C123.458 20.46 123.638 21.56 123.998 22.44C124.378 23.32 124.858 23.96 125.438 24.36C126.038 24.76 126.678 24.96 127.358 24.96ZM126.098 11.7C125.378 11.7 124.778 12.15 124.298 13.05C123.838 13.93 123.548 15.3 123.428 17.16H128.138C128.178 15.58 128.018 14.28 127.658 13.26C127.318 12.22 126.798 11.7 126.098 11.7Z" fill="white"/>
<path d="M27.5657 5.9681L27.566 5.96831C32.0086 9.70781 31.3307 15.7816 28.1903 18.9916L28.1897 18.9922L18.4454 28.9171C17.796 29.5793 16.9285 29.9446 15.9996 29.9446C15.0743 29.9446 14.202 29.5725 13.5539 28.9118C13.5538 28.9117 13.5538 28.9116 13.5537 28.9115L3.80945 18.9867L3.80916 18.9864C0.662189 15.7757 -0.00330889 9.70188 4.43301 5.96842L27.5657 5.9681ZM27.5657 5.9681C24.2584 3.18797 19.255 3.51081 15.9996 6.48932M27.5657 5.9681L15.9996 6.48932M25.205 8.77142C23.2757 7.14687 20.2372 7.35642 18.3007 9.32824L16.3566 11.3108L15.9996 11.6748L15.6426 11.3108L13.6984 9.32823C11.7728 7.36737 8.73398 7.14681 6.79357 8.77742L25.205 8.77142ZM25.205 8.77142C27.7859 10.9476 27.4174 14.5379 25.5761 16.4144C25.5761 16.4144 25.576 16.4144 25.576 16.4145L15.9996 26.1684M25.205 8.77142L15.9996 26.1684M15.9996 6.48932C12.7445 3.51085 7.741 3.18216 4.43319 5.96827L15.9996 6.48932ZM15.9996 26.1684L6.42308 16.4144C4.5656 14.5219 4.20736 10.9542 6.79347 8.7775L15.9996 26.1684ZM15.8281 26.3425C15.8281 26.3425 15.829 26.3416 15.8308 26.3402C15.829 26.3419 15.8281 26.3426 15.8281 26.3425ZM16.1711 26.3425C16.1711 26.3426 16.1702 26.3419 16.1684 26.3402C16.1701 26.3416 16.171 26.3425 16.1711 26.3425Z" fill="#252A34" stroke="#252A34"/>
<path fill-rule="evenodd" clip-rule="evenodd" d="M20.3753 15C20.3184 15.5234 20.29 16.0634 20.29 16.62C20.29 20.04 21.21 22.7 23.05 24.6C24.89 26.48 27.54 27.42 31 27.42C32.54 27.42 34.18 26.92 35.92 25.92C36.66 25.5 37.2 25.29 37.54 25.29C37.8 25.29 38 25.47 38.14 25.83C38.3 26.19 38.39 26.58 38.41 27H39.01V21.06C39.01 20.3 39.04 19.75 39.1 19.41C39.18 19.07 39.31 18.84 39.49 18.72C39.67 18.6 39.96 18.52 40.36 18.48V17.88C39.46 17.94 38.12 17.97 36.34 17.97C34.16 17.97 32.45 17.94 31.21 17.88V18.48C32.09 18.52 32.73 18.62 33.13 18.78C33.55 18.94 33.84 19.24 34 19.68C34.16 20.1 34.24 20.78 34.24 21.72V24.66C34.24 25.04 34.18 25.35 34.06 25.59C33.96 25.83 33.78 26.04 33.52 26.22C32.98 26.62 32.27 26.82 31.39 26.82C27.55 26.82 25.63 23.36 25.63 16.44C25.63 15.9496 25.6453 15.4696 25.6759 15H20.3753ZM43.7006 15V24.21C43.7006 25.03 43.5606 25.6 43.2806 25.92C43.0006 26.22 42.5006 26.37 41.7806 26.37V27C43.9406 26.92 45.3306 26.88 45.9506 26.88C46.6106 26.88 47.9406 26.92 49.9406 27V26.37C49.2406 26.37 48.7406 26.22 48.4406 25.92C48.1606 25.6 48.0206 25.03 48.0206 24.21V15H43.7006ZM52.3595 15L57.2163 27.06C57.4363 27.04 57.7563 27.03 58.1763 27.03C58.6163 27.03 58.9463 27.04 59.1663 27.06L63.4296 15H62.5857C62.5253 15.5574 62.3755 16.1874 62.1363 16.89L59.9763 22.83L57.0303 15H52.3595ZM65 11.5408V12.3863C65.1949 12.2505 65.4003 12.1518 65.6163 12.09V11.49C65.4397 11.5104 65.2343 11.5273 65 11.5408ZM78.7012 22.56C77.7012 24.16 76.3812 24.96 74.7412 24.96C74.0612 24.96 73.4212 24.76 72.8212 24.36C72.2412 23.96 71.7612 23.32 71.3812 22.44C71.0212 21.56 70.8412 20.46 70.8412 19.14C70.8412 18.5 70.8512 18.03 70.8712 17.73H79.3012C79.3012 13.29 77.4212 11.07 73.6612 11.07C71.4412 11.07 69.6612 11.79 68.3212 13.23C66.9812 14.65 66.3112 16.71 66.3112 19.41C66.3112 22.05 66.9312 24.05 68.1712 25.41C69.4312 26.75 71.1212 27.42 73.2412 27.42C74.7812 27.42 76.0612 26.97 77.0812 26.07C78.1212 25.15 78.8412 24.04 79.2412 22.74L78.7012 22.56ZM71.6812 13.05C72.1612 12.15 72.7612 11.7 73.4812 11.7C74.1812 11.7 74.7012 12.22 75.0412 13.26C75.4012 14.28 75.5612 15.58 75.5212 17.16H70.8112C70.9312 15.3 71.2212 13.93 71.6812 13.05ZM88.8761 6.60004C89.2161 6.48004 89.7461 6.40004 90.4661 6.36004V5.76004C89.3661 5.82004 87.7961 5.85004 85.7561 5.85004C83.6161 5.85004 82.0361 5.82004 81.0161 5.76004V6.36004C81.6761 6.40004 82.1561 6.48004 82.4561 6.60004C82.7761 6.72004 82.9861 6.95004 83.0861 7.29004C83.2061 7.63004 83.2661 8.18004 83.2661 8.94004V23.82C83.2661 24.58 83.2061 25.13 83.0861 25.47C82.9861 25.81 82.7761 26.04 82.4561 26.16C82.1561 26.28 81.6761 26.36 81.0161 26.4V27C83.1761 26.94 86.4361 26.91 90.7961 26.91C94.0161 26.91 96.3061 26.94 97.6661 27C97.5261 25.76 97.4561 24.18 97.4561 22.26C97.4561 21.18 97.4861 20.3 97.5461 19.62H96.8561C96.5561 21.64 95.9061 23.26 94.9061 24.48C93.9261 25.7 92.7561 26.31 91.3961 26.31H89.9261C89.3661 26.31 88.9561 26.26 88.6961 26.16C88.4561 26.06 88.2861 25.87 88.1861 25.59C88.0861 25.29 88.0361 24.82 88.0361 24.18V8.94004C88.0361 8.18004 88.0961 7.63004 88.2161 7.29004C88.3361 6.95004 88.5561 6.72004 88.8761 6.60004ZM104.936 4.38004C104.456 3.96004 103.796 3.75004 102.956 3.75004C102.116 3.75004 101.446 3.96004 100.946 4.38004C100.466 4.78004 100.226 5.34004 100.226 6.06004C100.226 6.78004 100.466 7.35004 100.946 7.77004C101.446 8.17004 102.116 8.37004 102.956 8.37004C103.796 8.37004 104.456 8.17004 104.936 7.77004C105.436 7.35004 105.686 6.78004 105.686 6.06004C105.686 5.34004 105.436 4.78004 104.936 4.38004ZM105.716 25.92C105.436 25.6 105.296 25.03 105.296 24.21V11.16C104.156 11.44 102.696 11.58 100.916 11.58C100.316 11.58 99.696 11.55 99.056 11.49V12.12C99.776 12.12 100.276 12.33 100.556 12.75C100.836 13.17 100.976 13.84 100.976 14.76V24.21C100.976 25.03 100.836 25.6 100.556 25.92C100.276 26.22 99.776 26.37 99.056 26.37V27C101.216 26.92 102.606 26.88 103.226 26.88C103.886 26.88 105.216 26.92 107.216 27V26.37C106.516 26.37 106.016 26.22 105.716 25.92ZM119.649 4.53004C118.749 3.87004 117.679 3.54004 116.439 3.54004C115.619 3.54004 114.839 3.68004 114.099 3.96004C113.359 4.24004 112.769 4.60004 112.329 5.04004C111.629 5.72004 111.139 6.54004 110.859 7.50004C110.579 8.44004 110.439 9.78004 110.439 11.52H108.399V12.12H110.439V24.21C110.439 25.03 110.299 25.6 110.019 25.92C109.739 26.22 109.239 26.37 108.519 26.37V27C110.519 26.92 111.819 26.88 112.419 26.88C113.079 26.88 114.519 26.91 116.739 26.97L117.579 27V26.37C116.639 26.37 115.929 26.19 115.449 25.83C114.989 25.47 114.759 24.83 114.759 23.91V12.12H117.969V11.52H114.759V8.79004C114.759 7.63004 114.799 6.76004 114.879 6.18004C114.959 5.60004 115.109 5.16004 115.329 4.86004C115.649 4.34004 116.189 4.08004 116.949 4.08004C117.229 4.08004 117.459 4.12004 117.639 4.20004C117.839 4.28004 117.969 4.38004 118.029 4.50004C117.449 4.66004 117.009 4.94004 116.709 5.34004C116.409 5.74004 116.259 6.20004 116.259 6.72004C116.259 7.38004 116.469 7.90004 116.889 8.28004C117.309 8.66004 117.859 8.85004 118.539 8.85004C119.159 8.85004 119.669 8.65004 120.069 8.25004C120.469 7.83004 120.669 7.34004 120.669 6.78004C120.669 6.30004 120.569 5.87004 120.369 5.49004C120.189 5.09004 119.949 4.77004 119.649 4.53004ZM131.318 22.56C130.318 24.16 128.998 24.96 127.358 24.96C126.678 24.96 126.038 24.76 125.438 24.36C124.858 23.96 124.378 23.32 123.998 22.44C123.638 21.56 123.458 20.46 123.458 19.14C123.458 18.5 123.468 18.03 123.488 17.73H131.918C131.918 13.29 130.038 11.07 126.278 11.07C124.058 11.07 122.278 11.79 120.938 13.23C119.598 14.65 118.928 16.71 118.928 19.41C118.928 22.05 119.548 24.05 120.788 25.41C122.048 26.75 123.738 27.42 125.858 27.42C127.398 27.42 128.678 26.97 129.698 26.07C130.738 25.15 131.458 24.04 131.858 22.74L131.318 22.56ZM124.298 13.05C124.778 12.15 125.378 11.7 126.098 11.7C126.798 11.7 127.318 12.22 127.658 13.26C128.018 14.28 128.178 15.58 128.138 17.16H123.428C123.548 15.3 123.838 13.93 124.298 13.05Z" fill="white"/>
</svg>
